<svg width="256" height="256" viewBox="0 0 256 256" fill="none" xmlns="http://www.w3.org/2000/svg">
<ellipse cx="128" cy="228.5" rx="125" ry="24.5" fill="black" fill-opacity="0.25"/>
<path d="M170.1 89C162.6 26.5 145.1 14 110.1 14C75.0996 14 62.5996 61.5 59.0996 92C55.5996 122.5 42.5997 125 40.0997 176C37.5997 227 82.5996 242 122.1 242C160.102 242 190.1 227.666 190.1 179.5C190.1 142.5 177.6 151.5 170.1 89Z" fill="#9DC57E" stroke="black" stroke-width="8" stroke-linecap="round" stroke-linejoin="round"/>
<path d="M110.1 14C117.896 14 124.823 14.6202 130.966 16.275C168.029 24.1783 177.704 52.4656 194 106.5C212.761 168.707 220.308 232.141 138.366 240.996C133.166 241.686 127.72 242 122.1 242C127.877 241.883 133.293 241.544 138.366 240.996C168.319 237.02 190.1 220.542 190.1 179.5C190.1 142.5 177.6 151.5 170.1 89C164.27 40.4215 152.4 22.0493 130.966 16.275C124.816 14.9636 117.913 14.2135 110.1 14Z" fill="#34531B"/>
<path d="M110.1 14C145.1 14 162.6 26.5 170.1 89C177.6 151.5 190.1 142.5 190.1 179.5C190.1 227.666 160.102 242 122.1 242C221.199 240 213.922 172.558 194 106.5C175 43.5 165 15.5 110.1 14Z" stroke="black" stroke-width="8" stroke-linecap="round" stroke-linejoin="round"/>
<circle cx="115" cy="163" r="45" fill="#614F2E" stroke="black" stroke-width="4"/>
<path fill-rule="evenodd" clip-rule="evenodd" d="M120.986 205.587C135.341 197.289 145 181.773 145 164C145 144.338 133.178 127.437 116.255 120.018C115.838 120.006 115.42 120 115 120C91.2518 120 72 139.252 72 163C72 186.748 91.2518 206 115 206C117.031 206 119.03 205.859 120.986 205.587Z" fill="#6C5936"/>
<ellipse cx="96.5872" cy="148.423" rx="9.29572" ry="15.7085" transform="rotate(33.5 96.5872 148.423)" fill="#7A6641"/>
<circle cx="90.5" cy="65.5" r="10.5" fill="#0F110D"/>
<circle cx="136.5" cy="65.5" r="10.5" fill="#0F110D"/>
<path d="M90.0251 65.0251C87.8298 67.2204 84.6958 67.6456 83.0251 65.9748C81.3544 64.3041 81.7796 61.1701 83.9748 58.9749C86.1701 56.7796 89.3041 56.3544 90.9748 58.0251C92.6455 59.6958 92.2203 62.8298 90.0251 65.0251Z" fill="#D7DCD3"/>
<path d="M136.025 65.0251C133.83 67.2204 130.696 67.6456 129.025 65.9748C127.354 64.3041 127.78 61.1701 129.975 58.9749C132.17 56.7796 135.304 56.3544 136.975 58.0251C138.646 59.6958 138.22 62.8298 136.025 65.0251Z" fill="#D7DCD3"/>
<path d="M94.722 69.722C93.6175 70.8266 92.1127 71.1126 91.3611 70.361C90.6094 69.6093 90.8955 68.1045 92 67C93.1046 65.8954 94.6093 65.6093 95.361 66.361C96.1127 67.1127 95.8266 68.6174 94.722 69.722Z" fill="#D7DCD3"/>
<path d="M140.722 69.722C139.617 70.8266 138.113 71.1126 137.361 70.361C136.609 69.6093 136.895 68.1045 138 67C139.105 65.8954 140.609 65.6093 141.361 66.361C142.113 67.1127 141.827 68.6174 140.722 69.722Z" fill="#D7DCD3"/>
<path d="M107 84C109.979 91.2948 118.104 90.0075 120 84" stroke="#0F110D" stroke-width="4" stroke-linecap="round" stroke-linejoin="round"/>
</svg>
