<svg width="256" height="256" viewBox="0 0 256 256" fill="none" xmlns="http://www.w3.org/2000/svg">
<ellipse cx="127.5" cy="228.5" rx="124.5" ry="24.5" fill="black" fill-opacity="0.25"/>
<path d="M224 28C215.626 16.0506 187 12.5 163 10L190.134 215C206.882 209.805 225.047 202.461 227.293 193.544C230.433 181.075 231.48 135.875 231.48 104.183C231.48 72.4908 206.449 67.234 218.919 56.918C225.2 51.7225 232.374 39.9494 224 28Z" fill="#93653B" stroke="black" stroke-width="8"/>
<path d="M35.4887 206.598C30.8372 185.802 30.8371 94.8215 35.4886 69.3469C37.2828 55.8298 52.0931 56.0063 45.8255 49.0712C40.6571 43.3525 34.4551 40.753 38.073 26.1961C41.6909 11.6392 53.5782 8 129.554 8C205.529 8 213.799 29.3155 211.732 38.6735C209.664 48.0315 191.575 44.9121 191.575 56.3497C191.575 67.7873 198.811 64.6679 206.046 78.185C213.282 91.7022 210.181 186.322 206.046 206.598C201.912 226.873 40.1403 227.393 35.4887 206.598Z" fill="#C6AF5F" stroke="black" stroke-width="8"/>
<path d="M64 104C83.3319 135.136 131.887 136.941 171 125.66" stroke="black" stroke-width="8" stroke-linecap="round"/>
<ellipse cx="88" cy="70.5" rx="11" ry="11.5" fill="black"/>
<ellipse cx="150" cy="76.5" rx="11" ry="11.5" fill="black"/>
</svg>
