<svg width="256" height="256" viewBox="0 0 256 256" fill="none" xmlns="http://www.w3.org/2000/svg">
<ellipse cx="128" cy="228.5" rx="125" ry="24.5" fill="black" fill-opacity="0.25"/>
<path d="M195.522 221.663C175.022 233.491 148.522 229.163 133.522 215.164C130.006 211.882 126.914 207.296 124.341 201.5C110.682 222 99.6022 225 80 225C61 225 41.5 210 34.5 199C27.5 188 22.9595 161.633 29.5001 145.5C37.0001 127 68.0519 109.199 80 121.681C95.5386 110.995 113.601 112.91 128 128.739C139.805 116.497 158.355 111.019 174.5 121.681L175.177 122.482C188.772 113.659 203.673 114.456 213.522 122.664C225.522 132.664 230 153.5 228.522 170.664C226.298 196.5 213.522 211.279 195.522 221.663Z" fill="#C02E3F"/>
<path d="M166.522 129.664C169.301 126.795 172.208 124.409 175.177 122.482M175.177 122.482C188.772 113.659 203.673 114.456 213.522 122.664C225.522 132.664 230 153.5 228.522 170.664C226.298 196.5 213.522 211.279 195.522 221.663C175.022 233.491 148.522 229.163 133.522 215.164C130.006 211.882 126.914 207.296 124.341 201.5M175.177 122.482L174.5 121.681C158.355 111.019 139.805 116.497 128 128.739M128 128.739C120.429 136.59 115.631 147.223 116.022 158.164C116.669 176.264 119.637 190.903 124.341 201.5M128 128.739C113.601 112.91 95.5386 110.995 80 121.681M70.5001 132C72.361 128.633 76.653 123.983 80 121.681M80 121.681C68.0519 109.199 37.0001 127 29.5001 145.5C22.9595 161.633 27.5 188 34.5 199C41.5 210 61 225 80 225C99.6022 225 110.682 222 124.341 201.5" stroke="black" stroke-width="8" stroke-miterlimit="16" stroke-linecap="round"/>
<path d="M228.522 170.663C226.298 196.5 213.522 211.279 195.522 221.663C182.927 228.93 168.066 230.099 155 226.672C146.8 224.522 139.306 220.562 133.522 215.164C130.006 211.882 126.914 207.296 124.341 201.5C110.682 222 99.6022 225 80 225C72.476 225 64.8736 222.648 58 219.123C83.1788 219.972 111.011 210.621 116 156.899C116.001 155.084 116.143 153.281 116.414 151.5C116.301 153.348 116.163 155.147 116 156.899C116 157.32 116.007 157.742 116.022 158.164C116.669 176.264 119.637 190.903 124.341 201.5C126.914 207.296 130.006 211.882 133.522 215.164C139.306 220.562 146.8 224.522 155 226.672C176 221 219 208.5 213 122.5C226 132 229.629 157.803 228.522 170.663Z" fill="black" fill-opacity="0.2"/>
<path d="M79 118.5C69.5 49.5 170.5 69.5 172 19.5C189.167 23.3333 215.1 46 175.5 120" stroke="#432101" stroke-width="8" stroke-miterlimit="16" stroke-linecap="round"/>
<path d="M178 16.0731C152.392 81.7668 69.164 51.4806 57 39.7728C103.095 36.805 87.0899 -2.78949 178 16.0731Z" fill="#428644" stroke="black" stroke-miterlimit="16" stroke-linecap="round" stroke-linejoin="round"/>
<path d="M125 19C131.019 20.9231 139.712 39.5128 137.706 44" stroke="black" stroke-opacity="0.3" stroke-width="2" stroke-linecap="round" stroke-linejoin="round"/>
<path d="M112 24C112.706 35.4286 123.294 41.1429 124 49" stroke="black" stroke-opacity="0.3" stroke-width="2" stroke-linecap="round" stroke-linejoin="round"/>
<path d="M75 41.8828C109.767 48.8437 145.178 21 169 21" stroke="#2E5E30" stroke-width="2" stroke-linecap="round" stroke-linejoin="round"/>
<path d="M142 18C152.182 22.9231 155.364 29.6923 156 34" stroke="#2E5E30" stroke-width="2" stroke-linecap="round" stroke-linejoin="round"/>
<path d="M97 32C97.6 35.2692 102.4 47.0385 106 49" stroke="#2E5E30" stroke-width="2" stroke-linecap="round" stroke-linejoin="round"/>
<circle cx="46" cy="151" r="7" fill="#D9D9D9" stroke="black" stroke-width="2"/>
<circle cx="69" cy="151" r="7" fill="#D9D9D9" stroke="black" stroke-width="2"/>
<path fill-rule="evenodd" clip-rule="evenodd" d="M52.3994 155.802C53.4044 154.464 54 152.802 54 151C54 149.198 53.4044 147.536 52.3994 146.198C51.9554 146.069 51.4858 146 51 146C48.2386 146 46 148.239 46 151C46 153.761 48.2386 156 51 156C51.4858 156 51.9554 155.931 52.3994 155.802Z" fill="black"/>
<path fill-rule="evenodd" clip-rule="evenodd" d="M75.3994 155.802C76.4044 154.464 77 152.802 77 151C77 149.198 76.4044 147.536 75.3994 146.198C74.9554 146.069 74.4858 146 74 146C71.2386 146 69 148.239 69 151C69 153.761 71.2386 156 74 156C74.4858 156 74.9554 155.931 75.3994 155.802Z" fill="black"/>
<circle cx="211" cy="151" r="7" transform="rotate(180 211 151)" fill="#D9D9D9" stroke="black" stroke-width="2"/>
<circle cx="188" cy="151" r="7" transform="rotate(180 188 151)" fill="#D9D9D9" stroke="black" stroke-width="2"/>
<path fill-rule="evenodd" clip-rule="evenodd" d="M204.601 146.198C203.596 147.536 203 149.198 203 151C203 152.802 203.596 154.464 204.601 155.802C205.045 155.931 205.514 156 206 156C208.761 156 211 153.761 211 151C211 148.239 208.761 146 206 146C205.514 146 205.045 146.069 204.601 146.198Z" fill="black"/>
<path fill-rule="evenodd" clip-rule="evenodd" d="M181.601 146.198C180.596 147.536 180 149.198 180 151C180 152.802 180.596 154.464 181.601 155.802C182.045 155.931 182.514 156 183 156C185.761 156 188 153.761 188 151C188 148.239 185.761 146 183 146C182.514 146 182.045 146.069 181.601 146.198Z" fill="black"/>
<path d="M50 167H66.5" stroke="black" stroke-width="4" stroke-linecap="round" stroke-linejoin="round"/>
<path d="M191 166.999H207.5" stroke="black" stroke-width="4" stroke-linecap="round" stroke-linejoin="round"/>
</svg>
