<svg width="256" height="256" viewBox="0 0 256 256" fill="none" xmlns="http://www.w3.org/2000/svg">
<ellipse cx="128" cy="228.5" rx="125" ry="24.5" fill="black" fill-opacity="0.25"/>
<path d="M127.5 226L240 65L205 16H51.5L14.5 65L127.5 226Z" fill="#7BA5CD"/>
<path d="M14.5 65L51.5 16L88 65L128.25 16L167 65L205 16L240 65H167H88H14.5Z" fill="#95B6D4"/>
<path d="M127.5 226L88 65H14.5L127.5 226Z" fill="#A7BED3"/>
<path d="M240 65H167L127.5 226L240 65Z" fill="#6398C9"/>
<path d="M127.5 226L240 65L205 16H51.5L14.5 65L127.5 226Z" stroke="black" stroke-width="8"/>
<rect x="82" y="99" width="91" height="31" rx="15.5" fill="#D9D9D9" stroke="black" stroke-width="4"/>
<line x1="81" y1="114" x2="174" y2="114" stroke="#7BA5CD" stroke-width="2"/>
<line x1="128" y1="98" x2="128" y2="131" stroke="#7BA5CD" stroke-width="2"/>
<line x1="112" y1="98" x2="112" y2="131" stroke="#7BA5CD" stroke-width="2"/>
<line x1="96" y1="98" x2="96" y2="131" stroke="#7BA5CD" stroke-width="2"/>
<line x1="159" y1="98" x2="159" y2="131" stroke="#7BA5CD" stroke-width="2"/>
<line x1="143" y1="98" x2="143" y2="131" stroke="#7BA5CD" stroke-width="2"/>
<rect x="82" y="99" width="91" height="31" rx="15.5" stroke="black" stroke-width="4"/>
<ellipse cx="102" cy="65" rx="9" ry="15" fill="black"/>
<ellipse cx="153" cy="65" rx="9" ry="15" fill="black"/>
<path d="M79 48C91.5 46 100.5 41.5 106 33" stroke="black" stroke-width="4" stroke-linecap="round"/>
<path d="M176 48C163.5 46 154.5 41.5 149 33" stroke="black" stroke-width="4" stroke-linecap="round"/>
<path d="M34.8206 173.304C37.3206 126.804 24.3206 106.804 16.8206 76.3037C15.0992 69.3037 16.3207 68.6037 18.3207 65.8037C20.8207 62.3037 42.3206 70.8037 50.3206 80.3037C58.3206 89.8037 45.5417 102.966 44.3206 109.804C41.8206 123.804 47.8206 126.804 34.8206 173.304Z" fill="#D9D9D9"/>
<path d="M195 51C192 10.5 166.5 18 151 12H206.998C206.977 11.9696 206.976 11.9685 207 12H206.998C207.432 12.613 216.549 25.168 213.5 22.5C209.5 19 203.5 23.5 201.5 31.5C199.5 39.5 198.5 68 195 51Z" fill="#D9D9D9"/>
<path d="M198.938 193C211.438 162.5 208.438 129.5 220.938 100.5C224.131 93.0935 221.438 89.1667 219.438 87C218.938 87.8333 216.538 90.4 210.938 94C203.938 98.5 194.438 92 187.938 100.5C181.438 109 186.438 122.5 195.938 138C205.438 153.5 194.938 179 198.938 193Z" fill="#D9D9D9"/>
<path d="M146.5 150.5C144.302 143.174 137.5 139.5 121.5 132H149C166 132 165 130 169.5 127.5C166.5 132.5 164.5 130 160 137C155.5 144 156 163.5 149.5 173.5C149 161.5 148 155.5 146.5 150.5Z" fill="#D9D9D9"/>
</svg>
