<svg width="256" height="256" viewBox="0 0 256 256" fill="none" xmlns="http://www.w3.org/2000/svg">
<ellipse cx="128" cy="228.5" rx="125" ry="24.5" fill="black" fill-opacity="0.25"/>
<path d="M209.409 140.816C211.436 183.579 194 231 128.113 232.996C65.3673 232.996 43.2383 181.363 46.2708 140.816C50.6357 82.4531 79.5532 11 128.113 11C176.672 11 206.668 83 209.409 140.816Z" fill="#C8C7C3" stroke="black" stroke-width="8"/>
<path d="M209.409 140.816C211.436 183.579 194 231 128.113 232.996C86.9298 232.996 63.2442 210.752 52.686 184C81 216 101.072 216.5 128.113 216.5C163.113 216.5 183.814 192.5 192.5 160.5C201.39 127.746 197.478 79.6669 189.623 61.337C189.077 60.2131 188.52 59.1005 187.954 58C188.527 58.9627 189.084 60.0799 189.623 61.337C201.297 85.373 208.164 114.557 209.409 140.816Z" fill="black" fill-opacity="0.2"/>
<path d="M106 109H146" stroke="black" stroke-width="8" stroke-linecap="round"/>
<ellipse cx="146.5" cy="72.5" rx="7.5" ry="11.5" fill="black"/>
<ellipse cx="101" cy="76" rx="9" ry="8" fill="black"/>
<path d="M85 66.7459C87.1667 63.2459 92.3445 59.9961 97 59.5C104 58.7541 109 66.5 116 64.5" stroke="black" stroke-width="4" stroke-linecap="round"/>
<path d="M133 46.5424C141.5 38.5424 155.5 31.0424 162.5 44.0424" stroke="black" stroke-width="4" stroke-linecap="round"/>
</svg>
