<svg width="256" height="256" viewBox="0 0 256 256" fill="none" xmlns="http://www.w3.org/2000/svg">
<path d="M143.193 113.105C89.3042 67.7621 77.475 18.4762 55.7881 42.1334C34.1013 66.4478 43.959 101.934 95.876 151.877C147.793 201.82 216.796 214.963 241.769 185.391C266.742 155.819 197.081 158.448 143.193 113.105Z" fill="#A56F1F"/>
<ellipse cx="128" cy="228.5" rx="125" ry="24.5" fill="black" fill-opacity="0.25"/>
<path d="M20.5 25.9999C11.6719 32.5049 9.00005 42.9999 20.5 56.4999C32.0001 70.4999 62 111 88 136.5C114 162 205.5 210 213 214C220.5 218 234.685 216.13 240 205.5C246 193.5 236.179 179.873 217.5 172.5C179.5 157.5 149.5 141 128 122.5C107.38 104.757 56.143 40.1734 49 31.4999C42 23 30 18.9999 20.5 25.9999Z" fill="#8A4E2D"/>
<path d="M20.5 26C11.6719 32.505 9.00005 43 20.5 56.5C32.0001 70.5 62 111 88 136.5C114 162 205.5 210 213 214C219.039 217.221 229.413 216.636 236 210.736C233.333 211.314 226.8 212.124 222 210.736C216 209 135.5 164 120.5 152.5C105.5 141 46 79 38 68.5C30 58 19.5 49.5 19.5 40C19.5 30.5 20.5 32.5 20.5 26Z" fill="black" fill-opacity="0.2"/>
<path d="M108.193 138.105C54.3042 92.762 43 48.5 20.7881 67.1333C-0.898682 91.4477 8.95903 126.934 60.876 176.877C112.793 226.82 181.796 239.962 206.769 210.391C231.742 180.819 162.081 183.448 108.193 138.105Z" fill="#D3912E"/>
<circle cx="26.5" cy="42.5" r="4.5" fill="#D9D9D9"/>
<circle cx="38.5" cy="35.5" r="4.5" fill="#D9D9D9"/>
<circle cx="38.5" cy="35.5" r="1.5" fill="black"/>
<path d="M42.2995 52.4636C36.3331 55.7616 29.7688 52.8367 28.6296 52.0904C27.566 51.3936 27.8702 50.5978 29.3891 50.2246C30.9079 49.8515 34.7051 48.732 38.5023 46.8662C40.6504 45.8107 45.3373 43.1346 46.4764 42.3883C47.6156 41.642 47.9953 42.0151 47.9953 43.1346C47.9953 44.2541 48.375 49.1052 42.2995 52.4636Z" fill="black"/>
<path d="M40.16 50.0921C36.8143 52 32.3533 52 30.8663 52C29.6149 52 28.1369 51.6339 29.624 51.2523C31.1109 50.8707 34.8285 49.7259 38.546 47.818C40.6489 46.7387 45.2374 44.0021 46.3527 43.2389C47.4679 42.4757 46.9214 43.6936 46.3527 44.7498C45.7363 45.8945 43.8886 47.9659 40.16 50.0921Z" fill="#D9D9D9"/>
<circle cx="26.5" cy="42.5" r="1.5" fill="black"/>
<path d="M9.57762 44.7845C10.5253 49.5229 13.4258 53.7784 16.115 57.1718C17.2901 58.6546 18.5152 60.0802 19.6186 61.364C19.8048 61.5807 19.9876 61.7933 20.1661 62.0016C20.3858 62.2579 20.5981 62.5065 20.803 62.748C16.8616 66.2161 12.317 71.9864 9.47251 79.7165C5.58579 90.2787 4.90334 104.394 12.8862 121.215C20.1312 136.481 34.3173 156.227 52.941 174.598C71.5797 192.983 94.8996 210.224 120.547 220.227C167.789 238.651 196.608 226.032 207.345 215.526C219.972 221.844 232.202 219.955 238.828 213.328C242.341 209.815 244.389 204.791 244.972 199.912C245.424 196.128 245.038 192.021 243.4 188.466C247.63 183.367 250.096 178.524 250.086 173.758C250.074 167.966 246.47 163.734 241.871 160.483C237.289 157.245 230.933 154.409 223.749 151.523C220.635 150.272 217.416 149.03 214.052 147.733C209.361 145.924 204.387 144.006 199.02 141.8C165.164 127.887 149.828 114.072 136.081 101.69C135.273 100.962 134.471 100.239 133.67 99.5217C119.475 86.7946 106.169 70.5594 90.1817 49.5758C82.1206 38.9956 75.4336 33.5905 69.1206 32.4963C64.3261 31.6652 60.5224 33.4145 57.5244 35.6901C49.9403 26.4064 43.2341 21.5094 36.9099 19.7202C29.6134 17.656 23.7065 19.9673 19.0845 22.4884C11.863 26.4275 7.80313 35.9122 9.57762 44.7845Z" stroke="black" stroke-width="8"/>
<path d="M53 66C72 58 82.5 74 90 97C97.5 120 102.5 124.5 125 129.5C147.5 134.5 159.5 144.5 166.5 159.5C173.5 174.5 202 178.5 216 179.5" stroke="#E8BE28" stroke-width="8" stroke-linecap="round"/>
</svg>
